# xmcd
#
# Track frame offsets:
#	150
#	14481
#	27268
#	38837
#	50797
#	63357
#	75954
#	87615
#	98489
#	111820
#	124420
#	136633
#	151291
#	164788
#	177474
#	189835
#	203432
#	216938
#	230466
#	244803
#	258469
#	271977
#	284074
#	295369
#
# Disc length: 4081
#
# Revision: 2
# Processed by: cddbd v1.5.1PL0 Copyright (c) Steve Scherf et al.
# Submitted via: audiograbber 1.81.02
# Normalized: r1:TDELIM( - )
#
DISCID=5e0fef18
DTITLE=Various Artist - 1950 The R&B Hits
DYEAR=1950
DGENRE=Rhythm and Blues
TTITLE0=Ivory Joe Hunter - I Almost Lost My Mind
TTITLE1=Ivory Joe Hunter - I Quit My Pretty Mama
TTITLE2=Louis Jordan - School Days
TTITLE3=Wynonie Harris - Sittin' On It All The Tmie
TTITLE4=Little Esther - Double Crossing Blues
TTITLE5=John Lee Hooker - Huckle Up Baby
TTITLE6=Peppermint Harris - Rainin' In My Heart
TTITLE7=Nellie Lutcher and Nat King Cole - For You My Love
TTITLE8=Roy Hawkins - Why Do Things Happen To Me
TTITLE9=Ivory Joe Hunter - S.P. Blues
TTITLE10=Roy Milton - Information Blues
TTITLE11=Clarence Garlow - Bon Ton Roula
TTITLE12=Cecil Payne Orchestera - Block Buster Boogie
TTITLE13=Joe Turner - Still In The Dark
TTITLE14=Wynonie Harris - I Like My Baby's Pudding
TTITLE15=Little Esther and Mel  Walker - Mistrustin' Blues
TTITLE16=Charles Brown - My Baby's Gone
TTITLE17=Annie Laurie and Paul Gayton - I'll Never Be Free
TTITLE18=Ivory Joe Hunter - I Need You So
TTITLE19=Joe Liggins - Pink Champagne
TTITLE20=Amos Milburn - Walking Blues
TTITLE21=Tiny Bradshaw - Well Oh Well
TTITLE22=Lowell Fulson - Everyday I Have The Blues
TTITLE23=Calvin Boze - Safonia B
EXTD=Indigo Recordings Ltd.
EXTT0=
EXTT1=
EXTT2=
EXTT3=
EXTT4=
EXTT5=
EXTT6=
EXTT7=
EXTT8=
EXTT9=
EXTT10=
EXTT11=
EXTT12=
EXTT13=
EXTT14=
EXTT15=
EXTT16=
EXTT17=
EXTT18=
EXTT19=
EXTT20=
EXTT21=
EXTT22=
EXTT23=
PLAYORDER=
